<?xml version="1.0" encoding="UTF-8" standalone="yes"?>
<!DOCTYPE svg PUBLIC "-//W3C//DTD SVG 1.1//EN" "http://www.w3.org/Graphics/SVG/1.1/DTD/svg11.dtd">

<svg width="504" height="192" viewBox="0 0 504 192" xmlns="http://www.w3.org/2000/svg" xmlns:xlink="http://www.w3.org/1999/xlink" version="1.1" baseProfile="full">
    <defs>
        <linearGradient id="17720080" x1="-1%" x2="-1%" y1="-2%" y2="102%">
            <stop offset="6%" style="stop-color:#777bb1;stop-opacity:1.000000"></stop>
            <stop offset="70%" style="stop-color:#df5c43;stop-opacity:1.000000"></stop>
        </linearGradient>
    </defs>
    <g transform="scale(1,-1) translate(0,-192)">
        <path d="M 4.390902 150.835722 L 4.390902 6.235881 L 55.451066 6.235881 Q 76.955658 6.235881 91.256741 14.710597 Q 105.557824 23.185313 112.655399 39.446174 Q 119.752973 55.707036 119.752973 78.906570 Q 119.752973 101.894237 112.708365 117.996198 Q 105.663758 134.098158 91.415642 142.466940 Q 77.167525 150.835722 55.451066 150.835722 Z M 30.238786 129.331130 L 52.273047 129.331130 Q 66.891932 129.331130 75.896318 123.239928 Q 84.900704 117.148726 88.979161 105.760827 Q 93.057618 94.372927 93.057618 78.482835 Q 93.057618 64.605487 90.303335 54.912531 Q 87.549053 45.219575 82.358289 39.234306 Q 77.167525 33.249038 69.540281 30.494756 Q 61.913037 27.740473 52.273047 27.740473 L 30.238786 27.740473 Z M 182.677739 120.326745 Q 166.469845 120.326745 155.187879 113.335104 Q 143.905914 106.343463 138.026579 94.319960 Q 132.147245 82.296457 132.147245 66.830100 L 132.147245 58.143516 Q 132.147245 42.253424 137.973612 30.071020 Q 143.799980 17.888616 155.081945 11.108843 Q 166.363911 4.329070 182.677739 4.329070 Q 198.991567 4.329070 210.220566 11.108843 Q 221.449565 17.888616 227.275932 30.071020 Q 233.102299 42.253424 233.102299 58.249450 L 233.102299 66.936034 Q 233.102299 82.402391 227.275932 94.425894 Q 221.449565 106.449397 210.220566 113.388071 Q 198.991567 120.326745 182.677739 120.326745 Z M 182.677739 100.305228 Q 191.152455 100.305228 196.661020 96.014903 Q 202.169586 91.724578 204.870901 84.150301 Q 207.572217 76.576024 207.572217 66.724166 L 207.572217 58.143516 Q 207.572217 48.503527 204.923868 40.876283 Q 202.275520 33.249038 196.766954 28.799812 Q 191.258389 24.350587 182.677739 24.350587 Q 174.203023 24.350587 168.588524 28.852779 Q 162.974024 33.354972 160.272709 40.929250 Q 157.571393 48.503527 157.571393 58.143516 L 157.571393 66.724166 Q 157.571393 76.470090 160.325676 84.097334 Q 163.079958 91.724578 168.641491 96.014903 Q 174.203023 100.305228 182.677739 100.305228 Z M 259.691720 118.314000 L 243.589760 118.314000 L 243.589760 98.398417 L 259.267984 98.398417 L 259.267984 37.910132 Q 259.267984 26.575199 262.446003 19.424658 Q 265.624021 12.274116 273.410167 8.884230 Q 281.196312 5.494344 294.967725 5.494344 Q 298.887281 5.494344 302.065300 5.812145 Q 305.243318 6.129947 306.726394 6.341815 L 306.726394 25.409926 Q 305.772988 25.303992 304.289913 25.251025 Q 302.806838 25.198058 301.217828 25.198058 Q 292.001575 25.198058 288.187953 28.376077 Q 284.374330 31.554095 284.374330 40.452547 L 284.374330 98.398417 L 306.196724 98.398417 L 306.196724 118.314000 L 284.374330 118.314000 L 284.374330 145.433091 L 259.691720 145.433091 Z M 416.368031 27.740473 L 350.688983 27.740473 L 350.688983 69.372515 L 412.554409 69.372515 L 412.554409 89.817767 L 350.688983 89.817767 L 350.688983 129.331130 L 416.368031 129.331130 L 416.368031 150.835722 L 324.947033 150.835722 L 324.947033 6.235881 L 416.368031 6.235881 Z M 436.177680 6.235881 L 461.389960 6.235881 L 461.389960 72.656467 Q 461.389960 79.859976 464.038309 85.686343 Q 466.686657 91.512710 471.930388 94.955564 Q 477.174118 98.398417 485.013230 98.398417 Q 491.581135 98.398417 496.877833 95.750068 Q 502.174530 93.101720 505.246615 87.540187 Q 508.318699 81.978655 508.318699 73.080203 L 508.318699 6.235881 L 533.636913 6.235881 L 533.636913 78.270967 Q 533.636913 98.822153 522.672749 109.468515 Q 511.708586 120.114877 494.441352 120.114877 Q 485.225098 120.114877 478.604227 117.254660 Q 471.983355 114.394443 467.851931 110.263019 Q 463.720507 106.131595 461.919630 102.423907 L 460.860290 102.423907 L 460.860290 118.314000 L 436.177680 118.314000 Z M 577.917304 6.235881 L 606.307603 6.235881 L 645.609098 118.314000 L 619.655280 118.314000 L 592.748057 32.401567 L 591.794651 32.401567 L 567.217975 118.314000 L 540.310752 118.314000 Z" transform="scale(0.500000,0.500000) translate(179.000000,164.000000)" fill="#777bb1" opacity="1.000000"></path>
        <path d="M 11.910279 5.782329 L 11.910279 38.628403 L 44.001271 38.628403 L 44.001271 45.532011 L 11.910279 45.532011 L 11.910279 72.445297 L 46.859796 72.445297 L 46.859796 79.348905 L 4.359457 79.348905 L 4.359457 5.782329 Z M 80.460952 63.114639 C 65.359309 63.114639 56.729799 52.219882 56.729799 36.956435 L 56.729799 31.077581 C 56.729799 15.760200 65.359309 4.865444 80.460952 4.865444 C 95.562595 4.865444 104.138171 15.760200 104.138171 31.077581 L 104.138171 36.956435 C 104.138171 52.165947 95.508661 63.114639 80.460952 63.114639 Z M 80.460952 56.534637 C 90.600627 56.534637 96.695219 49.037750 96.695219 36.524960 L 96.695219 31.455122 C 96.695219 18.996267 90.600627 11.499380 80.460952 11.499380 C 70.267343 11.499380 64.172751 18.996267 64.172751 31.455122 L 64.172751 36.524960 C 64.172751 49.037750 70.321278 56.534637 80.460952 56.534637 Z M 119.078011 5.782329 L 126.520964 5.782329 L 126.520964 40.570043 C 126.520964 49.307422 130.188506 56.103162 140.328181 56.103162 C 142.054083 56.103162 143.887854 55.995293 144.696870 55.833489 L 144.696870 62.791032 C 143.672116 62.898901 142.485558 63.006770 141.191132 63.006770 C 132.669490 63.006770 128.462604 58.368408 126.736702 54.485128 L 126.520964 54.485128 L 126.520964 62.143819 L 119.078011 62.143819 Z M 173.174255 25.198727 C 173.443927 16.029873 180.077863 4.164296 199.116720 4.164296 C 214.002626 4.164296 225.868203 11.607249 225.868203 25.684137 C 225.868203 37.280042 218.263447 42.295945 206.559673 45.478077 L 194.532293 48.768078 C 186.873602 50.763652 183.206061 54.754801 183.206061 60.849392 C 183.206061 69.317099 190.163603 74.225133 200.087540 74.225133 C 211.305904 74.225133 216.753282 68.022673 217.346561 60.849392 L 224.951317 60.849392 C 224.681645 74.333002 212.870003 81.074807 200.249344 81.074807 C 187.143275 81.074807 175.493436 73.631855 175.493436 60.417917 C 175.493436 49.253488 183.529667 43.752175 192.428850 41.379059 L 204.725902 38.089059 C 213.732954 35.769878 218.101643 32.102336 218.101643 25.144793 C 218.101643 16.569217 210.928363 11.067904 200.033606 11.067904 C 187.520816 11.067904 181.480158 17.971512 180.832945 25.198727 Z M 306.661994 62.143819 L 299.057238 62.143819 L 287.784940 15.814135 L 287.461333 15.814135 L 273.654116 62.143819 L 266.480836 62.143819 L 252.727554 15.814135 L 252.350013 15.814135 L 241.077715 62.143819 L 233.472959 62.143819 L 248.412798 5.782329 L 256.125423 5.782329 L 269.986575 51.302996 L 270.202312 51.302996 L 284.009529 5.782329 L 291.722154 5.782329 Z M 316.585931 76.058904 C 316.585931 73.146445 318.905112 70.827264 321.763637 70.827264 C 324.622162 70.827264 326.995278 73.146445 326.995278 76.058904 C 326.995278 78.917430 324.622162 81.236611 321.763637 81.236611 C 318.905112 81.236611 316.585931 78.917430 316.585931 76.058904 Z M 318.042161 5.782329 L 325.485113 5.782329 L 325.485113 62.143819 L 318.042161 62.143819 Z M 346.519545 5.782329 L 353.908563 5.782329 L 353.908563 55.779555 L 365.828074 55.779555 L 365.828074 62.143819 L 353.908563 62.143819 L 353.908563 67.753001 C 353.908563 74.980216 357.036761 77.191528 363.401025 77.191528 C 364.803320 77.191528 365.720206 77.029724 366.583157 76.921855 L 366.583157 83.232185 C 365.666271 83.393988 364.263976 83.609726 362.592008 83.609726 C 351.751186 83.609726 346.519545 78.863495 346.519545 68.238411 L 346.519545 62.143819 L 338.591182 62.143819 L 338.591182 55.779555 L 346.519545 55.779555 Z M 381.846603 62.143819 L 373.918240 62.143819 L 373.918240 55.779555 L 381.846603 55.779555 L 381.846603 20.830038 C 381.846603 10.097084 384.381522 5.242985 396.948246 5.242985 C 398.889886 5.242985 400.777592 5.458722 401.640543 5.674460 L 401.640543 11.769052 C 400.777592 11.661183 399.860706 11.607249 398.782017 11.607249 C 391.608737 11.607249 389.235621 13.387085 389.235621 20.290693 L 389.235621 55.779555 L 401.155133 55.779555 L 401.155133 62.143819 L 389.235621 62.143819 L 389.235621 76.220708 L 381.846603 76.220708 Z" transform="scale(0.500000,0.500000) translate(301.000000,63.000000)" fill="#df5c43" opacity="1.000000"></path>
        <path d="M 74.000000 378.000018 L 934.000000 378.000018 C 972.659932 378.000018 1004.000000 346.659951 1004.000000 308.000020 L 1004.000000 73.999998 C 1004.000000 35.340066 972.659932 4.000000 934.000000 4.000000 L 74.000000 4.000000 C 35.340068 4.000000 4.000000 35.340066 4.000000 73.999998 L 4.000000 308.000020 C 4.000000 346.659951 35.340068 378.000018 74.000000 378.000018 Z M 74.000000 358.000018 C 46.385762 358.000018 24.000000 335.614256 24.000000 308.000020 L 24.000000 73.999998 C 24.000000 46.385762 46.385762 24.000000 74.000000 24.000000 L 934.000000 24.000000 C 961.614238 24.000000 984.000000 46.385762 984.000000 73.999998 L 984.000000 308.000020 C 984.000000 335.614256 961.614238 358.000018 934.000000 358.000018 L 74.000000 358.000018 Z" transform="scale(0.500000,0.500000) translate(0.000000,0.000000)" fill="url(#17720080)" opacity="1.000000"></path>
    </g>
</svg>